<svg width="30" height="30" viewBox="0 0 30 30" fill="none" xmlns="http://www.w3.org/2000/svg"><path fill-rule="evenodd" clip-rule="evenodd" d="M27.833 15c0 7.088-5.745 12.833-12.833 12.833S2.167 22.088 2.167 15 7.912 2.167 15 2.167 27.833 7.912 27.833 15M30 15c0 8.284-6.716 15-15 15S0 23.284 0 15 6.716 0 15 0s15 6.716 15 15m-6.724-6.724a1.552 1.552 0 1 1-3.103 0 1.552 1.552 0 0 1 3.103 0m-12.788 7.933a4.671 4.671 0 1 0 9.024-2.418 4.671 4.671 0 0 0-9.024 2.418m-2.093.56a6.838 6.838 0 1 0 13.21-3.539 6.838 6.838 0 0 0-13.21 3.54" fill="url(#a)"/><defs><lineargradient id="a" x1="5" y1="50" x2="65" y2="50" gradientUnits="userSpaceOnUse"><stop stop-color="#ffb620"/><stop offset=".461" stop-color="#3121FF"/></lineargradient></defs></svg>