<svg width="36" height="36" viewBox="0 0 36 36" fill="none" xmlns="http://www.w3.org/2000/svg"><path fill-rule="evenodd" clip-rule="evenodd" d="M27.75 1.875c.621 0 1.125.504 1.125 1.125v4.125H33a1.125 1.125 0 0 1 0 2.25h-4.125V13.5a1.125 1.125 0 0 1-2.25 0V9.375H22.5a1.125 1.125 0 0 1 0-2.25h4.125V3c0-.621.504-1.125 1.125-1.125" fill="#fff"/><path fill-rule="evenodd" clip-rule="evenodd" d="M18 1.875h-.086c-3.463 0-6.176 0-8.293.285-2.168.291-3.878.899-5.22 2.241s-1.95 3.052-2.241 5.22c-.285 2.117-.285 4.83-.285 8.293v.172c0 3.463 0 6.176.285 8.293.291 2.168.899 3.878 2.241 5.22s3.052 1.95 5.22 2.241c2.117.285 4.83.285 8.293.285h.172c3.463 0 6.176 0 8.293-.285 2.168-.291 3.878-.899 5.22-2.241s1.95-3.052 2.241-5.22c.285-2.117.285-4.83.285-8.293V18a1.125 1.125 0 0 0-2.25 0c0 3.567-.002 6.13-.265 8.08q-.015.115-.032.227l-4.16-3.745a5.625 5.625 0 0 0-6.998-.421l-.447.314a1.875 1.875 0 0 1-2.404-.208l-6.435-6.435a4.575 4.575 0 0 0-6.247-.208l-.76.665c.006-2.688.045-4.73.263-6.349.257-1.917.748-3.073 1.602-3.928.855-.854 2.01-1.345 3.928-1.602 1.95-.263 4.513-.265 8.08-.265a1.125 1.125 0 0 0 0-2.25M4.39 26.08c.257 1.917.748 3.073 1.602 3.928.855.854 2.01 1.345 3.928 1.602 1.95.263 4.513.265 8.08.265s6.13-.002 8.08-.265c1.917-.257 3.073-.748 3.928-1.602a4.6 4.6 0 0 0 .906-1.297 1 1 0 0 1-.167-.125l-4.835-4.352a3.375 3.375 0 0 0-4.198-.252l-.447.314a4.125 4.125 0 0 1-5.29-.458l-6.434-6.435a2.325 2.325 0 0 0-3.175-.105L4.126 19.26c.003 2.923.033 5.107.264 6.82" fill="#fff"/></svg>