<svg width="20" height="20" viewBox="0 0 20 20" fill="none" xmlns="http://www.w3.org/2000/svg"><path d="M7.458 9.958a.833.833 0 1 1-1.666 0 .833.833 0 0 1 1.666 0m3.334 0a.833.833 0 1 1-1.667 0 .833.833 0 0 1 1.667 0m3.333 0a.833.833 0 1 1-1.667 0 .833.833 0 0 1 1.667 0" fill="#877EFF"/><path fill-rule="evenodd" clip-rule="evenodd" d="M18.917 9.958a8.958 8.958 0 1 0-16.982 3.99c.09.179.108.362.067.516l-.496 1.855a1.708 1.708 0 0 0 2.092 2.092l1.855-.497a.74.74 0 0 1 .516.068 8.958 8.958 0 0 0 12.947-8.023M9.958 2.25a7.708 7.708 0 1 1-3.431 14.613 2 2 0 0 0-1.397-.156l-1.855.496a.458.458 0 0 1-.562-.56l.497-1.856a2 2 0 0 0-.156-1.397A7.708 7.708 0 0 1 9.958 2.25" fill="#877EFF"/></svg>