<svg width="16" height="16" viewBox="0 0 16 16" fill="none" xmlns="http://www.w3.org/2000/svg"><g clip-path="url(#a)"><path fill-rule="evenodd" clip-rule="evenodd" d="M7.962.833H9a.5.5 0 0 1 0 1H8c-1.586 0-2.724.002-3.591.118-.852.115-1.366.333-1.746.712-.38.38-.598.894-.712 1.746-.117.867-.118 2.006-.118 3.591s.001 2.725.118 3.591c.114.852.332 1.366.712 1.746s.894.598 1.746.712c.867.117 2.005.118 3.59.118 1.586 0 2.725-.001 3.592-.118.852-.114 1.366-.332 1.746-.712s.597-.894.712-1.746c.117-.866.118-2.005.118-3.59V7a.5.5 0 1 1 1 0v1.037c0 1.54 0 2.745-.127 3.686-.13.963-.4 1.723-.996 2.32-.597.597-1.357.867-2.32.996-.94.127-2.147.127-3.686.127h-.076c-1.54 0-2.745 0-3.686-.127-.963-.13-1.723-.4-2.32-.996-.597-.597-.867-1.357-.996-2.32-.127-.94-.127-2.147-.127-3.686v-.076c0-1.539 0-2.745.127-3.686.13-.963.4-1.723.996-2.32.597-.596 1.357-.867 2.32-.996.94-.127 2.147-.127 3.686-.127m3.218.684a2.335 2.335 0 1 1 3.303 3.303L10.05 9.252c-.248.247-.403.402-.576.537a3.6 3.6 0 0 1-.658.407 6 6 0 0 1-.738.274l-1.936.646a.995.995 0 0 1-1.259-1.259l.646-1.936c.11-.332.18-.54.274-.738q.168-.351.407-.658c.135-.173.29-.328.537-.576zm2.595.708a1.335 1.335 0 0 0-1.888 0l-.25.25a2.6 2.6 0 0 0 .684 1.205 2.6 2.6 0 0 0 1.204.684l.25-.251a1.335 1.335 0 0 0 0-1.888m-1.038 2.927a3.6 3.6 0 0 1-1.124-.765 3.6 3.6 0 0 1-.764-1.124l-3.37 3.37c-.278.278-.387.388-.48.507a2.6 2.6 0 0 0-.292.473c-.065.136-.115.282-.239.655l-.288.864.688.688.864-.288c.373-.124.52-.174.655-.239q.252-.12.473-.292c.119-.093.229-.201.506-.48z" fill="#FFB620"/></g><defs><clipPath id="a"><path fill="#fff" d="M0 0h16v16H0z"/></clipPath></defs></svg>