<svg width="97" height="77" viewBox="0 0 97 77" fill="none" xmlns="http://www.w3.org/2000/svg"><path d="M17.017 24.09h.295c2.754-.197 4.82-2.557 4.721-5.311-.197-2.754-2.557-4.82-5.311-4.722-2.754.099-4.82 2.558-4.722 5.312.099 2.656 2.361 4.721 5.017 4.721m-2.36-7.082c.491-.59 1.278-.983 2.065-.983h.197a3.065 3.065 0 0 1 3.049 3.049 3.065 3.065 0 0 1-3.05 3.049 3.064 3.064 0 0 1-3.049-3.05c0-.786.295-1.475.787-2.065" fill="#5C5C7B"/><path d="m84.296 18.582-26.262-1.475-.197-2.951c-.295-5.607-5.115-9.935-10.82-9.64l-33.344 1.87c-5.606.294-9.934 5.212-9.64 10.819l1.87 33.442v.787c.688 5.115 5.016 8.951 10.13 8.951h.59l21.345-1.18v.59c-.295 5.607 3.935 10.525 9.64 10.82l33.442 1.967h.59c5.41 0 9.935-4.23 10.23-9.64L93.837 29.5c.394-5.705-3.934-10.525-9.54-10.918m-76.23-7.475a8.1 8.1 0 0 1 5.705-2.755l33.443-1.868c4.525-.295 8.46 3.246 8.754 7.77l.197 2.754-5.213-.295c-5.607-.295-10.525 3.935-10.82 9.64l-.59 9.344-9.344 10.524c-.197.295-.59.394-.984.492-.393 0-.688-.098-.983-.393l-7.673-6.886c-1.377-1.278-3.442-1.081-4.721.296L7.87 48.68 6.1 17.205c-.197-2.262.59-4.426 1.967-6.098m8.558 47.213c-4.23.196-7.967-2.754-8.656-6.984l9.246-10.328c.197-.295.59-.393.984-.492.393 0 .688.099.983.394l7.672 6.885c.689.59 1.574.885 2.46.885s1.672-.492 2.262-1.082l7.672-8.655-1.082 18.295zM91.87 29.303l-1.967 33.443c-.296 4.524-4.23 8.065-8.755 7.77L47.707 68.55c-4.525-.295-8.066-4.23-7.77-8.754l1.967-33.442c.295-4.328 3.836-7.771 8.262-7.771h.492L84.1 20.55c4.623.295 8.066 4.23 7.77 8.754" fill="#5C5C7B"/><path d="M77.903 41.402 61.28 30.484c-2.066-1.377-4.82-.787-6.099 1.278-.393.689-.688 1.377-.688 2.164l-1.18 19.77c-.099 2.46 1.672 4.525 4.13 4.722h.296c.688 0 1.377-.197 1.967-.492l17.705-8.852a4.41 4.41 0 0 0 1.967-5.902 6.4 6.4 0 0 0-1.475-1.77m-1.377 5.901L58.82 56.156a2.7 2.7 0 0 1-1.279.295c-.393 0-.885-.197-1.18-.394-.689-.491-1.18-1.278-1.082-2.164l1.18-19.77c.098-.885.59-1.672 1.377-2.066s1.672-.295 2.46.099l16.425 10.918c1.18.787 1.476 2.262.689 3.344a1.93 1.93 0 0 1-.885.885" fill="#5C5C7B"/></svg>