<svg width="20" height="20" viewBox="0 0 20 20" fill="none" xmlns="http://www.w3.org/2000/svg"><path fill-rule="evenodd" clip-rule="evenodd" d="M10 1.042a3.958 3.958 0 1 0 0 7.916 3.958 3.958 0 0 0 0-7.916M7.292 5a2.708 2.708 0 1 1 5.416 0 2.708 2.708 0 0 1-5.416 0M10 10.208c-1.928 0-3.704.438-5.02 1.179-1.297.73-2.272 1.835-2.272 3.196v.085c0 .968-.002 2.184 1.064 3.052.525.427 1.258.73 2.25.931.994.201 2.29.307 3.978.307s2.984-.106 3.978-.307c.992-.2 1.726-.504 2.25-.931 1.066-.868 1.065-2.084 1.064-3.052v-.085c0-1.361-.975-2.467-2.272-3.196-1.316-.74-3.092-1.179-5.02-1.179m-6.042 4.375c0-.71.518-1.479 1.634-2.107C6.69 11.86 8.246 11.458 10 11.458s3.311.401 4.408 1.018c1.116.628 1.634 1.398 1.634 2.107 0 1.09-.034 1.704-.603 2.167-.31.252-.825.497-1.709.676-.88.178-2.085.282-3.73.282s-2.85-.104-3.73-.282c-.884-.179-1.4-.424-1.709-.676-.569-.463-.603-1.077-.603-2.167" fill="#877EFF"/></svg>