<svg width="20" height="20" viewBox="0 0 20 20" fill="none" xmlns="http://www.w3.org/2000/svg"><path fill-rule="evenodd" clip-rule="evenodd" d="m11.895 3.84.032.029 3.345 2.973c.624.555 1.142 1.014 1.497 1.432.373.439.639.911.639 1.496 0 .584-.266 1.056-.64 1.495-.354.418-.872.878-1.496 1.432l-3.345 2.974-.032.028c-.27.24-.523.465-.74.609-.215.141-.604.346-1.04.15s-.541-.622-.578-.876c-.037-.259-.037-.597-.037-.958v-1.351a9.6 9.6 0 0 0-3.507.928c-1.261.614-2.268 1.485-2.815 2.526A.625.625 0 0 1 2 16.437c0-3.935 1.151-6.497 2.797-8.071C6.232 6.993 7.98 6.43 9.5 6.312V4.916c0-.362 0-.7.037-.958.037-.254.142-.682.578-.877.436-.196.825.009 1.04.15.217.144.47.369.74.609m-1.142.66q.139.12.344.303l3.31 2.942c.668.594 1.118.996 1.41 1.339.28.33.341.522.341.686 0 .163-.06.356-.341.685-.292.343-.742.745-1.41 1.339l-3.31 2.942q-.205.182-.344.303l-.003-.458v-1.954a.625.625 0 0 0-.625-.625c-1.594 0-3.25.378-4.68 1.075a8.6 8.6 0 0 0-2.083 1.407c.307-2.54 1.215-4.178 2.3-5.215 1.35-1.292 3.055-1.732 4.463-1.732.345 0 .625-.28.625-.625V4.96q0-.274.003-.459" fill="#877EFF"/></svg>