<svg width="20" height="20" viewBox="0 0 20 20" fill="none" xmlns="http://www.w3.org/2000/svg"><g clip-path="url(#a)" stroke="#877EFF" stroke-width="1.5"><path d="M3.94 13.447c-1.288-1.287-1.93-1.932-2.17-2.767-.24-.836-.035-1.723.375-3.498L2.38 6.16c.344-1.493.517-2.24 1.028-2.751.511-.512 1.258-.684 2.75-1.028l1.024-.237c1.775-.41 2.662-.614 3.498-.374.835.24 1.48.883 2.767 2.171l1.525 1.525c2.24 2.24 3.361 3.361 3.361 4.753 0 1.393-1.12 2.513-3.36 4.754-2.242 2.24-3.362 3.361-4.754 3.361-1.393 0-2.513-1.12-4.754-3.361z"/><circle cx="7.173" cy="7.399" r="1.667" transform="rotate(-45 7.173 7.4)"/><path d="M9.618 15.417 15.434 9.6" stroke-linecap="round"/></g><defs><clipPath id="a"><path fill="#fff" d="M0 0h20v20H0z"/></clipPath></defs></svg>