<svg width="36" height="36" viewBox="0 0 36 36" fill="none" xmlns="http://www.w3.org/2000/svg"><path fill-rule="evenodd" clip-rule="evenodd" d="M18 1.875C11.58 1.875 6.376 7.08 6.376 13.5v1.056a5.3 5.3 0 0 1-.89 2.937l-1.723 2.585c-2 3-.473 7.076 3.005 8.025q1.702.463 3.426.784l.003.008c1.154 3.078 4.237 5.23 7.804 5.23 3.566 0 6.65-2.152 7.803-5.23l.003-.008a43 43 0 0 0 3.426-.784c3.478-.949 5.004-5.026 3.005-8.025l-1.723-2.585a5.3 5.3 0 0 1-.89-2.937V13.5c0-6.42-5.204-11.625-11.625-11.625m5.065 27.43a42.7 42.7 0 0 1-10.13 0c1.067 1.533 2.922 2.57 5.065 2.57s3.999-1.037 5.065-2.57M8.625 13.5a9.375 9.375 0 0 1 18.75 0v1.056c0 1.49.442 2.946 1.268 4.185l1.723 2.585a3.03 3.03 0 0 1-1.725 4.606 40.44 40.44 0 0 1-21.28 0 3.03 3.03 0 0 1-1.726-4.606l1.723-2.585a7.55 7.55 0 0 0 1.268-4.185z" fill="#fff"/></svg>